<svg id="visual" viewBox="0 0 900 600" width="900" height="600" xmlns="http://www.w3.org/2000/svg" xmlns:xlink="http://www.w3.org/1999/xlink" version="1.1"><rect x="0" y="0" width="900" height="600" fill="#001220"></rect><path d="M0 191L21.5 197C43 203 86 215 128.8 217.3C171.7 219.7 214.3 212.3 257.2 209.5C300 206.7 343 208.3 385.8 204.7C428.7 201 471.3 192 514.2 190.5C557 189 600 195 642.8 190.8C685.7 186.7 728.3 172.3 771.2 171C814 169.7 857 181.3 878.5 187.2L900 193L900 0L878.5 0C857 0 814 0 771.2 0C728.3 0 685.7 0 642.8 0C600 0 557 0 514.2 0C471.3 0 428.7 0 385.8 0C343 0 300 0 257.2 0C214.3 0 171.7 0 128.8 0C86 0 43 0 21.5 0L0 0Z" fill="#69faaf"></path><path d="M0 191L21.5 183.2C43 175.3 86 159.7 128.8 153.8C171.7 148 214.3 152 257.2 158.8C300 165.7 343 175.3 385.8 175.7C428.7 176 471.3 167 514.2 161.3C557 155.7 600 153.3 642.8 158.5C685.7 163.7 728.3 176.3 771.2 171.5C814 166.7 857 144.3 878.5 133.2L900 122L900 0L878.5 0C857 0 814 0 771.2 0C728.3 0 685.7 0 642.8 0C600 0 557 0 514.2 0C471.3 0 428.7 0 385.8 0C343 0 300 0 257.2 0C214.3 0 171.7 0 128.8 0C86 0 43 0 21.5 0L0 0Z" fill="#59efa0"></path><path d="M0 90L21.5 91.3C43 92.7 86 95.3 128.8 100.5C171.7 105.7 214.3 113.3 257.2 123.8C300 134.3 343 147.7 385.8 148.3C428.7 149 471.3 137 514.2 125.3C557 113.7 600 102.3 642.8 100.2C685.7 98 728.3 105 771.2 111.8C814 118.7 857 125.3 878.5 128.7L900 132L900 0L878.5 0C857 0 814 0 771.2 0C728.3 0 685.7 0 642.8 0C600 0 557 0 514.2 0C471.3 0 428.7 0 385.8 0C343 0 300 0 257.2 0C214.3 0 171.7 0 128.8 0C86 0 43 0 21.5 0L0 0Z" fill="#47e490"></path><path d="M0 69L21.5 67.7C43 66.3 86 63.7 128.8 63.2C171.7 62.7 214.3 64.3 257.2 73.3C300 82.3 343 98.7 385.8 104.5C428.7 110.3 471.3 105.7 514.2 97.5C557 89.3 600 77.7 642.8 73.5C685.7 69.3 728.3 72.7 771.2 75.3C814 78 857 80 878.5 81L900 82L900 0L878.5 0C857 0 814 0 771.2 0C728.3 0 685.7 0 642.8 0C600 0 557 0 514.2 0C471.3 0 428.7 0 385.8 0C343 0 300 0 257.2 0C214.3 0 171.7 0 128.8 0C86 0 43 0 21.5 0L0 0Z" fill="#34d981"></path><path d="M0 47L21.5 47.7C43 48.3 86 49.7 128.8 46.8C171.7 44 214.3 37 257.2 38C300 39 343 48 385.8 48.3C428.7 48.7 471.3 40.3 514.2 41.3C557 42.3 600 52.7 642.8 52.8C685.7 53 728.3 43 771.2 38.7C814 34.3 857 35.7 878.5 36.3L900 37L900 0L878.5 0C857 0 814 0 771.2 0C728.3 0 685.7 0 642.8 0C600 0 557 0 514.2 0C471.3 0 428.7 0 385.8 0C343 0 300 0 257.2 0C214.3 0 171.7 0 128.8 0C86 0 43 0 21.5 0L0 0Z" fill="#19cf71"></path></svg>