<svg id="visual" viewBox="0 0 900 600" width="900" height="600" xmlns="http://www.w3.org/2000/svg" xmlns:xlink="http://www.w3.org/1999/xlink" version="1.1"><rect x="0" y="0" width="900" height="600" fill="#001220"></rect><path d="M0 407L21.5 401C43 395 86 383 128.8 380.7C171.7 378.3 214.3 385.7 257.2 388.5C300 391.3 343 389.7 385.8 393.3C428.7 397 471.3 406 514.2 407.5C557 409 600 403 642.8 407.2C685.7 411.3 728.3 425.7 771.2 427C814 428.3 857 416.7 878.5 410.8L900 405L900 601L878.5 601C857 601 814 601 771.2 601C728.3 601 685.7 601 642.8 601C600 601 557 601 514.2 601C471.3 601 428.7 601 385.8 601C343 601 300 601 257.2 601C214.3 601 171.7 601 128.8 601C86 601 43 601 21.5 601L0 601Z" fill="#69faaf"></path><path d="M0 407L21.5 414.8C43 422.7 86 438.3 128.8 444.2C171.7 450 214.3 446 257.2 439.2C300 432.3 343 422.7 385.8 422.3C428.7 422 471.3 431 514.2 436.7C557 442.3 600 444.7 642.8 439.5C685.7 434.3 728.3 421.7 771.2 426.5C814 431.3 857 453.7 878.5 464.8L900 476L900 601L878.5 601C857 601 814 601 771.2 601C728.3 601 685.7 601 642.8 601C600 601 557 601 514.2 601C471.3 601 428.7 601 385.8 601C343 601 300 601 257.2 601C214.3 601 171.7 601 128.8 601C86 601 43 601 21.5 601L0 601Z" fill="#59efa0"></path><path d="M0 508L21.5 506.7C43 505.3 86 502.7 128.8 497.5C171.7 492.3 214.3 484.7 257.2 474.2C300 463.7 343 450.3 385.8 449.7C428.7 449 471.3 461 514.2 472.7C557 484.3 600 495.7 642.8 497.8C685.7 500 728.3 493 771.2 486.2C814 479.3 857 472.7 878.5 469.3L900 466L900 601L878.5 601C857 601 814 601 771.2 601C728.3 601 685.7 601 642.8 601C600 601 557 601 514.2 601C471.3 601 428.7 601 385.8 601C343 601 300 601 257.2 601C214.3 601 171.7 601 128.8 601C86 601 43 601 21.5 601L0 601Z" fill="#47e490"></path><path d="M0 529L21.5 530.3C43 531.7 86 534.3 128.8 534.8C171.7 535.3 214.3 533.7 257.2 524.7C300 515.7 343 499.3 385.8 493.5C428.7 487.7 471.3 492.3 514.2 500.5C557 508.7 600 520.3 642.8 524.5C685.7 528.7 728.3 525.3 771.2 522.7C814 520 857 518 878.5 517L900 516L900 601L878.5 601C857 601 814 601 771.2 601C728.3 601 685.7 601 642.8 601C600 601 557 601 514.2 601C471.3 601 428.7 601 385.8 601C343 601 300 601 257.2 601C214.3 601 171.7 601 128.8 601C86 601 43 601 21.5 601L0 601Z" fill="#34d981"></path><path d="M0 551L21.5 550.3C43 549.7 86 548.3 128.8 551.2C171.7 554 214.3 561 257.2 560C300 559 343 550 385.8 549.7C428.7 549.3 471.3 557.7 514.2 556.7C557 555.7 600 545.3 642.8 545.2C685.7 545 728.3 555 771.2 559.3C814 563.7 857 562.3 878.5 561.7L900 561L900 601L878.5 601C857 601 814 601 771.2 601C728.3 601 685.7 601 642.8 601C600 601 557 601 514.2 601C471.3 601 428.7 601 385.8 601C343 601 300 601 257.2 601C214.3 601 171.7 601 128.8 601C86 601 43 601 21.5 601L0 601Z" fill="#19cf71"></path></svg>