<?xml version="1.0" standalone="no"?><svg xmlns="http://www.w3.org/2000/svg" viewBox="0 0 1440 320"><path fill="#00cba9" fill-opacity="1" d="M0,128L26.7,128C53.3,128,107,128,160,144C213.3,160,267,192,320,218.7C373.3,245,427,267,480,266.7C533.3,267,587,245,640,224C693.3,203,747,181,800,160C853.3,139,907,117,960,133.3C1013.3,149,1067,203,1120,192C1173.3,181,1227,107,1280,85.3C1333.3,64,1387,96,1413,112L1440,128L1440,320L1413.3,320C1386.7,320,1333,320,1280,320C1226.7,320,1173,320,1120,320C1066.7,320,1013,320,960,320C906.7,320,853,320,800,320C746.7,320,693,320,640,320C586.7,320,533,320,480,320C426.7,320,373,320,320,320C266.7,320,213,320,160,320C106.7,320,53,320,27,320L0,320Z"></path></svg>